# xmcd
#
# Track frame offsets:
#	150
#	21262
#	42875
#	61820
#	82500
#	111600
#	133167
#	151287
#	171775
#	189162
#	204700
#	230587
#	256975
#	272112
#	291775
#	312737
#
# Disc length: 4472 seconds
#
# Revision: 1
# Processed by: cddbd v1.5.1PL0 Copyright (c) Steve Scherf et al.
# Submitted via: CDex 1.50Beta5
#
DISCID=e3117610
DTITLE=Various Artist - POWER HITS JAPAN
DYEAR=1900
DGENRE=J-POP
TTITLE0=米米クラブ/君がいるだけで
TTITLE1=爆風スランプ/Runner
TTITLE2=チューブ/SUMMER DREAM
TTITLE3=レベッカ/フレンズ
TTITLE4=ユニコーン/雪が降る町
TTITLE5=ハウンド・ドック/f(フォルテシモ)
TTITLE6=TM NETWORK/Get Wild
TTITLE7=LOOK/シャイニン・オン君が哀しい
TTITLE8=一風堂/すみれSeptember Love
TTITLE9=ラッツ&スター/
TTITLE10=世紀魔/蝋人形の館
TTITLE11=X/虹
TTITLE12=東京スカイパラダイスオーケストラ/MONSTER ROCK
TTITLE13=電気グループ/Shangri-la
TTITLE14=JUN SKY WALKER/さらば愛しき危険たちよ
TTITLE15=THE BOOM/島歌
EXTD=
EXTT0=
EXTT1=
EXTT2=
EXTT3=
EXTT4=
EXTT5=
EXTT6=
EXTT7=
EXTT8=
EXTT9=
EXTT10=
EXTT11=
EXTT12=
EXTT13=
EXTT14=
EXTT15=
PLAYORDER=
